<svg width="10" height="10" viewBox="0 0 10 10" fill="none" xmlns="http://www.w3.org/2000/svg">
<path fill-rule="evenodd" clip-rule="evenodd" d="M8.75417 3.18766C8.65397 2.98065 8.74064 2.73142 8.94775 2.63123C9.15415 2.53082 9.40419 2.61729 9.50419 2.82481C9.83317 3.50393 10 4.23604 10 5C10 7.75686 7.75686 10 5 10C2.24314 10 0 7.75686 0 5C0 2.24314 2.24314 0 5 0C6.126 0 7.2288 0.383504 8.10516 1.08002C8.28542 1.22314 8.31543 1.48539 8.1721 1.66545C8.02877 1.8456 7.76621 1.87561 7.58667 1.73228C6.84642 1.14421 5.95205 0.833333 5 0.833333C2.70253 0.833333 0.833333 2.70253 0.833333 5C0.833333 7.29746 2.70253 9.16667 5 9.16667C7.29746 9.16667 9.16667 7.29746 9.16667 5C9.16667 4.36269 9.02791 3.75315 8.75417 3.18766ZM4.58319 2.08348C4.58319 1.85348 4.76985 1.66681 4.99985 1.66681C5.22985 1.66681 5.41652 1.85348 5.41652 2.08348V4.58348H7.08319C7.31319 4.58348 7.49985 4.77015 7.49985 5.00015C7.49985 5.23015 7.31319 5.41681 7.08319 5.41681H4.99985C4.76985 5.41681 4.58319 5.23015 4.58319 5.00015V2.08348Z" fill="#B2B4B5"/>
</svg>
