<svg width="14" height="15" viewBox="0 0 14 15" fill="none" xmlns="http://www.w3.org/2000/svg">
<path fill-rule="evenodd" clip-rule="evenodd" d="M12.6509 10.243C11.7781 9.50537 11.2777 8.42721 11.2777 7.285V5.6759C11.2777 3.64491 9.76903 1.96363 7.81477 1.68199V1.05857C7.81477 0.739414 7.55617 0.481445 7.23764 0.481445C6.91901 0.481445 6.66041 0.739414 6.66041 1.05857V1.68199C4.70562 1.96363 3.19744 3.64491 3.19744 5.6759V7.285C3.19744 8.42721 2.69704 9.50537 1.81925 10.2476C1.59468 10.4398 1.46596 10.7191 1.46596 11.0146C1.46596 11.5717 1.91901 12.0247 2.47606 12.0247H11.9992C12.5562 12.0247 13.0092 11.5717 13.0092 11.0146C13.0092 10.7191 12.8805 10.4398 12.6509 10.243ZM0.888916 6.18495C0.888916 6.50358 1.14752 6.76208 1.46604 6.76208C1.78467 6.76208 2.04327 6.50358 2.04327 6.18495C2.04327 4.56602 2.67345 3.04399 3.81798 1.89946C4.04372 1.67383 4.04372 1.30913 3.81798 1.08339C3.59235 0.857761 3.22754 0.857761 3.00191 1.08339C1.63925 2.44605 0.888916 4.25785 0.888916 6.18495ZM12.432 6.18495C12.432 6.50358 12.6905 6.76208 13.0092 6.76208C13.3278 6.76208 13.5863 6.50358 13.5863 6.18495C13.5863 4.25785 12.8361 2.44605 11.4733 1.08339C11.2477 0.857761 10.8828 0.857761 10.6572 1.08339C10.4316 1.30913 10.4316 1.67383 10.6572 1.89946C11.8017 3.04463 12.432 4.56602 12.432 6.18495ZM9.35813 12.6018C9.15723 13.5881 8.28282 14.3333 7.23763 14.3333C6.19234 14.3333 5.31793 13.5881 5.11713 12.6018H9.35813Z" fill="url(#paint0_linear)"/>
<defs>
<linearGradient id="paint0_linear" x1="0.888916" y1="1.55616" x2="13.6178" y2="13.2242" gradientUnits="userSpaceOnUse">
<stop stop-color="#F98445"/>
<stop offset="1" stop-color="#F74873"/>
</linearGradient>
</defs>
</svg>
