<svg width="12" height="12" viewBox="0 0 12 12" fill="none" xmlns="http://www.w3.org/2000/svg">
<path d="M6.20516 11.3C6.84622 11.3 7.33253 10.8086 7.33253 10.1383V7.12239H10.3167C11.002 7.12239 11.3999 6.65324 11.3999 6.05005C11.3999 5.44686 11.002 4.95537 10.3167 4.95537H7.33253V1.93941C7.33253 1.29154 6.84622 0.800049 6.20516 0.800049C5.56411 0.800049 5.0778 1.29154 5.0778 1.93941V4.95537H1.98306C1.3199 4.95537 0.899902 5.44686 0.899902 6.05005C0.899902 6.65324 1.3199 7.12239 1.98306 7.12239H5.0778V10.1383C5.0778 10.8086 5.56411 11.3 6.20516 11.3Z" fill="#474B53"/>
</svg>
