<svg width="18" height="18" viewBox="0 0 18 18" fill="none" xmlns="http://www.w3.org/2000/svg">
<path fill-rule="evenodd" clip-rule="evenodd" d="M0 7.92682C0 3.55609 3.55609 0 7.92682 0C12.2978 0 15.8536 3.55609 15.8536 7.92682C15.8536 9.84944 15.1657 11.6143 14.023 12.9883L17.7856 16.751C18.0715 17.0366 18.0715 17.5 17.7856 17.7856C17.6427 17.9285 17.4554 18 17.2683 18C17.081 18 16.8939 17.9285 16.751 17.7856L12.9883 14.023C11.6143 15.1657 9.84944 15.8536 7.92682 15.8536C3.55609 15.8536 0 12.2978 0 7.92682ZM1.46341 7.92685C1.46341 11.4907 4.36292 14.3903 7.92682 14.3903C11.4907 14.3903 14.3902 11.4907 14.3902 7.92682C14.3902 4.36292 11.4907 1.46341 7.92682 1.46341C4.36292 1.46341 1.46341 4.36296 1.46341 7.92685Z" fill="#B2B4B5"/>
</svg>
