<svg width="21" height="21" viewBox="0 0 21 21" fill="none" xmlns="http://www.w3.org/2000/svg">
<path fill-rule="evenodd" clip-rule="evenodd" d="M3.17907 0.222175L19.8807 8.30402C20.4054 8.55707 20.808 9.00831 21 9.55842H2.76812L0.158987 3.03785C-0.0730075 2.45924 -0.0502414 1.80964 0.221609 1.24866C0.754873 0.148506 2.07891 -0.311089 3.17907 0.222175ZM0.159048 17.5562L2.76818 11.0342H21.0001C20.8081 11.5842 20.4054 12.0355 19.8807 12.2885L3.17907 20.3734C2.87719 20.5191 2.54626 20.5947 2.21105 20.5947C1.93358 20.5935 1.6588 20.5402 1.40099 20.4378C0.26232 19.9849 -0.293711 18.6948 0.159048 17.5562Z" fill="url(#paint0_linear)"/>
<defs>
<linearGradient id="paint0_linear" x1="-7.21616e-08" y1="1.59787" x2="18.9933" y2="20.9649" gradientUnits="userSpaceOnUse">
<stop stop-color="#F98445"/>
<stop offset="1" stop-color="#F74873"/>
</linearGradient>
</defs>
</svg>
